#!OML:ASF H:\Terrain\Patient Classification 1\Walking\liu\liu.ASF
:FULLY-SPECIFIED
:DEGREES
259
root 10.681417 18.390020 -0.310489 9.076947 -8.294814 1.145232
lowerback -6.233557 1.267948 -2.644917
upperback -2.147508 1.806662 1.615020
thorax 1.159785 0.912033 3.262380
lowerneck -22.471350 -5.282365 -14.114870
upperneck 20.584299 -6.369154 14.552340
head 11.131889 -2.341768 6.622176
rclavicle -0.000000 -0.000000
rhumerus -50.567112 10.638584 -94.617599
rradius 43.682430
rwrist -23.923460
rhand -35.123989 -27.060329
rfingers 7.837522
rthumb -5.700211 -59.968590
lclavicle -0.000000 -0.000000
lhumerus -40.373299 -9.450012 98.223724
lradius 24.903009
lwrist -2.208261
lhand -10.359504 -24.579720
lfingers 7.837522
lthumb 18.198730 7.666428
rfemur -8.862864 -2.015035 17.522341
rtibia 67.263573
rfoot 5.996309 -9.861466
rtoes -16.757950
lfemur -34.903881 9.946486 -30.162220
ltibia 39.634319
lfoot -13.507670 7.567395
ltoes -0.189802
260
root 10.702395 18.418949 -0.165359 8.924586 -8.178588 1.540737
lowerback -6.313274 1.071561 -2.999018
upperback -1.994641 1.567522 1.574353
thorax 1.369896 0.787315 3.409417
lowerneck -22.658020 -5.222954 -14.105190
upperneck 20.719601 -6.280934 14.562130
head 11.201191 -2.293247 6.643736
rclavicle 0.000000 0.000000
rhumerus -50.055393 9.764788 -93.924492
rradius 43.515339
rwrist -22.507101
rhand -33.861519 -26.025230
rfingers 7.837522
rthumb -4.481169 -58.960114
lclavicle 0.000000 0.000000
lhumerus -39.481640 -10.401699 98.501923
lradius 25.256220
lwrist -1.349447
lhand -11.245630 -24.557718
lfingers 7.837522
lthumb 17.345461 7.757783
rfemur -10.279753 -2.196051 17.248989
rtibia 68.778053
rfoot 4.083024 -10.953360
rtoes -17.045380
lfemur -33.824890 9.643095 -30.624880
ltibia 38.982239
lfoot -13.678391 7.814257
ltoes -1.905937
261
root 10.730434 18.449970 -0.014548 8.775921 -7.999596 1.536216
lowerback -6.413671 0.915807 -2.798345
upperback -1.819609 1.351317 1.573847
thorax 1.626515 0.672476 3.286404
lowerneck -22.787600 -5.159451 -13.823481
upperneck 20.723339 -6.211480 14.337620
head 11.199210 -2.260720 6.521438
rclavicle 0.000000 0.000000
rhumerus -50.032951 9.619302 -93.744095
rradius 43.937958
rwrist -22.588499
rhand -33.688160 -25.089790
rfingers 7.837522
rthumb -4.313793 -58.027863
lclavicle 0.000000 0.000000
lhumerus -38.434879 -11.167860 98.513687
lradius 25.207930
lwrist -0.987527
lhand -12.059190 -25.356651
lfingers 7.837522
lthumb 16.561930 7.019133
rfemur -11.542630 -2.325026 17.335890
rtibia 69.987282
rfoot 1.893969 -11.574310
rtoes -15.021159
lfemur -32.692879 9.388973 -30.673830
ltibia 38.442909
lfoot -14.018291 7.993216
ltoes -2.741222
262
root 10.756647 18.494190 0.133162 8.661862 -7.863724 1.027194
lowerback -6.343964 0.875207 -2.101968
upperback -1.729387 1.253978 1.653146
thorax 1.700083 0.622586 2.969032
lowerneck -22.747009 -5.081802 -13.421761
upperneck 20.822119 -6.181769 14.078020
head 11.200750 -2.247091 6.362323
rclavicle -0.000000 -0.000000
rhumerus -50.322361 9.807831 -93.854858
rradius 44.606647
rwrist -23.486099
rhand -34.076130 -25.156012
rfingers 7.837522
rthumb -4.688420 -58.086819
lclavicle -0.000000 -0.000000
lhumerus -37.393948 -11.584980 98.196999
lradius 25.311550
lwrist -1.419759
lhand -12.013761 -25.510761
lfingers 7.837522
lthumb 16.605600 6.861712
rfemur -12.791240 -2.258388 18.099289
rtibia 70.889610
rfoot 0.353692 -11.786830
rtoes -16.226870
lfemur -31.612131 9.294978 -30.128670
ltibia 37.916451
lfoot -14.312651 8.062846
ltoes -3.028487
263
root 10.774918 18.514210 0.263773 8.551048 -7.619348 0.410961
lowerback -6.015273 0.710860 -1.549988
upperback -1.758757 0.995277 1.955536
thorax 1.506241 0.496886 2.946845
lowerneck -22.918831 -5.005814 -13.263250
upperneck 21.317560 -6.077621 13.778270
head 11.378731 -2.215279 6.257141
rclavicle -0.000000 0.000000
rhumerus -50.427849 9.610336 -93.538383
rradius 44.885834
rwrist -23.412180
rhand -34.168091 -26.334110
rfingers 7.837522
rthumb -4.777168 -59.263050
lclavicle -0.000000 0.000000
lhumerus -36.646389 -12.203290 98.260803
lradius 25.616579
lwrist -1.131361
lhand -11.902880 -25.111019
lfingers 7.837522
lthumb 16.712410 7.253444
rfemur -14.122020 -2.208525 19.103151
rtibia 71.688652
rfoot -0.868371 -12.280070
rtoes -17.852230
lfemur -30.682520 9.274563 -29.450739
ltibia 37.340931
lfoot -14.391960 7.922629
ltoes -3.105421
264
root 10.792793 18.532249 0.400696 8.329718 -7.393386 0.637292
lowerback -5.842463 0.439433 -1.918114
upperback -1.704373 0.648636 2.136673
thorax 1.479346 0.323277 3.317743
lowerneck -23.331440 -4.949593 -13.230800
upperneck 21.871078 -5.924358 13.435510
head 11.619960 -2.169233 6.168074
rclavicle 0.000000 -0.000000
rhumerus -50.285179 9.259118 -92.899178
rradius 44.891438
rwrist -23.220119
rhand -34.065239 -26.273170
rfingers 7.837522
rthumb -4.677838 -59.204197
lclavicle 0.000000 -0.000000
lhumerus -35.828762 -13.080210 98.622589
lradius 25.886301
lwrist 0.041542
lhand -12.548250 -25.439919
lfingers 7.837522
lthumb 16.090691 6.970601
rfemur -15.386030 -2.386791 19.037811
rtibia 72.352394
rfoot -2.694043 -12.485220
rtoes -16.961451
lfemur -29.602980 9.248910 -29.700880
ltibia 36.692921
lfoot -14.768050 7.580617
ltoes -2.617615
265
root 10.813165 18.549410 0.540509 8.134159 -7.276709 1.418043
lowerback -5.922257 0.243828 -2.643487
upperback -1.623501 0.430071 1.999987
thorax 1.616758 0.210060 3.573559
lowerneck -23.304710 -4.856610 -13.070090
upperneck 21.964689 -5.791731 13.178220
head 11.616440 -2.126443 6.067303
rclavicle 0.000000 0.000000
rhumerus -50.265491 9.340771 -92.700958
rradius 45.091530
rwrist -23.837662
rhand -34.821049 -26.308590
rfingers 7.837522
rthumb -5.407754 -59.223782
lclavicle 0.000000 0.000000
lhumerus -34.775288 -13.589621 98.559006
lradius 25.994871
lwrist 0.523618
lhand -13.253460 -26.519682
lfingers 7.837522
lthumb 15.411220 5.938999
rfemur -16.767849 -2.464561 18.320061
rtibia 72.952988
rfoot -4.633805 -12.405030
rtoes -16.698330
lfemur -28.571289 9.256577 -30.591549
ltibia 36.131371
lfoot -15.366120 7.208652
ltoes -1.021994
266
root 10.835033 18.558430 0.678664 7.969621 -7.104306 1.655687
lowerback -5.975607 0.069672 -2.773254
upperback -1.507077 0.206481 1.971915
thorax 1.782528 0.093700 3.604172
lowerneck -23.253561 -4.727074 -13.073170
upperneck 22.036631 -5.625576 13.201430
head 11.610060 -2.049641 6.105627
rclavicle 0.000000 0.000000
rhumerus -50.203781 9.497456 -92.646294
rradius 45.256088
rwrist -24.311211
rhand -35.284924 -26.350170
rfingers 7.837522
rthumb -5.855575 -59.254692
lclavicle 0.000000 0.000000
lhumerus -33.576401 -13.865610 98.282364
lradius 25.983759
lwrist 0.610266
lhand -13.059420 -26.756069
lfingers 7.837522
lthumb 15.598110 5.689530
rfemur -18.075199 -2.260049 18.307961
rtibia 73.366806
rfoot -6.586954 -12.615350
rtoes -15.886750
lfemur -27.468210 9.236161 -30.913080
ltibia 35.431549
lfoot -15.708550 7.145204
ltoes -0.182945
267
root 10.855680 18.549740 0.817189 7.764119 -6.953969 1.474187
lowerback -6.039440 -0.093867 -2.537612
upperback -1.240052 -0.026679 2.095148
thorax 2.110922 -0.030930 3.583976
lowerneck -23.461460 -4.597670 -13.242460
upperneck 22.136290 -5.427631 13.424180
head 11.668579 -1.940774 6.255898
rclavicle 0.000000 -0.000000
rhumerus -49.836491 9.096692 -92.231590
rradius 45.239922
rwrist -24.121790
rhand -34.577179 -26.161850
rfingers 7.837522
rthumb -5.172178 -59.082432
lclavicle 0.000000 -0.000000
lhumerus -32.210640 -14.071310 98.025070
lradius 26.058340
lwrist 0.882361
lhand -12.745700 -26.227190
lfingers 7.837522
lthumb 15.900500 6.196982
rfemur -19.273209 -2.085831 18.742790
rtibia 73.604523
rfoot -8.568989 -12.636030
rtoes -16.222799
lfemur -26.328060 8.798306 -30.685051
ltibia 34.764072
lfoot -15.960230 7.627631
ltoes -1.178023
268
root 10.877295 18.566349 0.957833 7.555152 -6.752955 1.794199
lowerback -5.996419 -0.310622 -2.805792
upperback -1.124288 -0.300940 2.086172
thorax 2.227434 -0.172896 3.706978
lowerneck -23.414820 -4.431922 -13.216500
upperneck 22.174131 -5.187666 13.335960
head 11.635360 -1.840531 6.257009
rclavicle 0.000000 0.000000
rhumerus -49.623310 8.746727 -91.890816
rradius 45.202080
rwrist -24.043911
rhand -33.878899 -26.431679
rfingers 7.837522
rthumb -4.497977 -59.366230
lclavicle 0.000000 0.000000
lhumerus -31.134951 -13.908950 97.735550
lradius 26.149860
lwrist 0.461148
lhand -12.923460 -26.259970
lfingers 7.837522
lthumb 15.729230 6.176478
rfemur -20.392899 -2.152667 18.524990
rtibia 73.640709
rfoot -10.363760 -12.176670
rtoes -19.763920
lfemur -25.182961 8.353994 -31.014170
ltibia 34.098789
lfoot -16.082769 7.938084
ltoes -3.341745
269
root 10.901649 18.597261 1.100044 7.302427 -6.566417 1.971387
lowerback -5.780016 -0.489628 -2.881593
upperback -1.086083 -0.539066 2.067494
thorax 2.164712 -0.291734 3.713897
lowerneck -23.491270 -4.308997 -13.128060
upperneck 22.401829 -5.032269 13.251369
head 11.705210 -1.770846 6.243622
rclavicle -0.000000 0.000000
rhumerus -49.735291 8.723121 -91.748581
rradius 45.354431
rwrist -24.488640
rhand -33.273567 -24.699951
rfingers 7.837522
rthumb -3.913349 -57.645058
lclavicle -0.000000 0.000000
lhumerus -30.338440 -14.659039 97.639519
lradius 26.311451
lwrist 0.657617
lhand -13.239491 -26.551031
lfingers 7.837522
lthumb 15.424640 5.906681
rfemur -21.360569 -2.015585 18.500130
rtibia 73.417526
rfoot -12.168640 -11.873180
rtoes -20.697050
lfemur -23.996170 8.440432 -31.267389
ltibia 33.571339
lfoot -16.420031 7.887231
ltoes -4.324672
270
root 10.915860 18.605179 1.239634 7.032894 -6.189535 2.428756
lowerback -5.796043 -0.715826 -3.298790
upperback -0.884360 -0.813682 1.940092
thorax 2.406591 -0.438555 3.797640
lowerneck -23.835569 -4.277251 -13.027081
upperneck 22.740189 -5.033688 13.338600
head 11.893640 -1.744578 6.275698
rclavicle 0.000000 -0.000000
rhumerus -49.833302 8.573510 -91.559601
rradius 45.799820
rwrist -24.639009
rhand -32.392471 -23.288870
rfingers 7.837522
rthumb -3.062499 -56.246632
lclavicle 0.000000 -0.000000
lhumerus -29.286730 -16.120941 97.574623
lradius 26.535082
lwrist 1.739430
lhand -13.668600 -26.502522
lfingers 7.837522
lthumb 15.011041 5.983362
rfemur -22.433290 -2.115157 18.157591
rtibia 73.197746
rfoot -14.021370 -11.759220
rtoes -17.727049
lfemur -22.831600 8.193977 -31.772619
ltibia 33.068420
lfoot -17.152630 7.764383
ltoes -2.748020
271
root 10.926487 18.608370 1.372426 6.852714 -6.022335 1.999217
lowerback -5.715853 -0.812013 -2.934932
upperback -0.723436 -0.969258 2.138829
thorax 2.538261 -0.518739 3.786728
lowerneck -24.138401 -4.287349 -12.861971
upperneck 23.198559 -5.035690 13.060300
head 12.107480 -1.758130 6.161199
rclavicle 0.000000 -0.000000
rhumerus -49.950008 8.677855 -91.443657
rradius 46.319901
rwrist -24.763639
rhand -32.182590 -24.590279
rfingers 7.837522
rthumb -2.859824 -57.550568
lclavicle 0.000000 -0.000000
lhumerus -27.992029 -15.630670 97.201836
lradius 26.366449
lwrist 1.062537
lhand -14.017850 -26.738031
lfingers 7.837522
lthumb 14.674550 5.770171
rfemur -23.655939 -1.757525 18.922861
rtibia 72.820770
rfoot -15.454780 -12.045770
rtoes -15.933830
lfemur -22.024199 7.907141 -31.203260
ltibia 32.892090
lfoot -17.906349 7.850579
ltoes -1.041680
272
root 10.920360 18.591761 1.496352 6.756904 -5.690696 2.190705
lowerback -5.457518 -1.079504 -3.530010
upperback -0.861021 -1.304259 2.350711
thorax 2.295117 -0.685355 4.323044
lowerneck -23.899040 -4.215200 -12.915430
upperneck 23.397551 -4.879677 12.764950
head 12.106050 -1.734755 6.088467
rclavicle 0.000000 -0.000000
rhumerus -50.335339 9.245423 -91.438705
rradius 46.790150
rwrist -25.443220
rhand -32.877571 -25.904999
rfingers 7.837522
rthumb -3.530934 -58.856159
lclavicle 0.000000 -0.000000
lhumerus -27.088379 -14.120811 96.840591
lradius 26.195070
lwrist -0.554093
lhand -14.042050 -27.226540
lfingers 7.837522
lthumb 14.651119 5.283190
rfemur -25.062620 -1.646381 19.016140
rtibia 72.527069
rfoot -16.657631 -12.360809
rtoes -17.447321
lfemur -21.526670 7.708910 -31.372330
ltibia 32.892422
lfoot -18.092691 7.984812
ltoes -1.858263
